<svg width="375" height="392" viewBox="0 0 375 392" fill="none" xmlns="http://www.w3.org/2000/svg">
<path d="M266.955 69.2605L265.233 69.6183C264.02 69.2924 264.21 66.4468 263.917 65.3419C256.754 38.5 220.895 16.5783 195.87 9.13851C152.967 -3.61081 120.454 2.2789 92.6927 38.3013C43.0792 102.676 43.0396 224.645 92.6927 288.995C103.036 302.404 116.203 313.81 132.106 320.034C130.813 316.012 128.616 312.197 127.045 308.215C104.456 251.018 121.239 183.535 169.83 145.804C228.192 100.482 308.724 115.433 350.167 175.245C393.023 237.108 379.277 325.423 317.679 369.068C255.525 413.103 171.725 391.061 135.612 325.67C57.1027 315.694 1.56416 244.405 0.0333185 166.844C-2.19552 53.9836 107.779 -34.9754 215.668 13.5499C227.303 18.7879 239.463 29.089 252.884 24.7492C259.126 22.7302 262.814 17.6433 264.075 11.3242C264.289 10.2671 263.964 8.93181 264.385 8.05748C264.94 6.88906 266.963 7.16714 266.963 7.85866V69.2605H266.955ZM241.097 121.839C223.322 123.294 207.315 135.201 196.369 148.554C152.078 202.604 152.253 310.607 197.345 364.156C229.421 402.245 272.515 396.053 300.189 357.122C338.127 303.764 338.468 209.05 300.982 155.374C287.093 135.495 266.637 119.749 241.089 121.839H241.097Z" fill="black"/>
<path d="M286.784 162.655L286.681 164.944C285.309 165.643 283.691 165.238 282.318 165.54C273.086 167.551 267.542 174.506 266.931 183.901L266.867 275.642C254.422 289.274 239.193 302.079 222.536 310.305C221.45 310.838 219.229 312.292 218.134 311.513L217.746 310.313L217.785 184.688C217.69 176.437 213.034 169.069 205.182 166.319C203.413 165.699 198.606 165.405 197.932 164.841C197.527 164.499 197.456 164.165 197.512 163.648L198.13 162.655H286.784Z" fill="black"/>
</svg>
